<svg aria-hidden="true" style="position: absolute; width: 0; height: 0; overflow: hidden;" version="1.1" xmlns="http://www.w3.org/2000/svg" xmlns:xlink="http://www.w3.org/1999/xlink">
<defs>
<symbol id="icon-chevron-small-down" viewBox="0 0 20 20">
<path d="M13.418 7.859c0.271-0.268 0.709-0.268 0.978 0s0.272 0.701 0 0.969l-3.908 3.83c-0.27 0.268-0.707 0.268-0.979 0l-3.908-3.83c-0.27-0.267-0.27-0.701 0-0.969s0.709-0.268 0.978 0l3.421 3.141 3.418-3.141z"></path>
</symbol>
<symbol id="icon-chevron-small-left" viewBox="0 0 20 20">
<path d="M12.141 13.418c0.268 0.271 0.268 0.709 0 0.978s-0.701 0.272-0.969 0l-3.83-3.908c-0.268-0.27-0.268-0.707 0-0.979l3.83-3.908c0.267-0.27 0.701-0.27 0.969 0s0.268 0.709 0 0.978l-3.141 3.421 3.141 3.418z"></path>
</symbol>
<symbol id="icon-chevron-small-right" viewBox="0 0 20 20">
<path d="M11 10l-3.141-3.42c-0.268-0.27-0.268-0.707 0-0.978 0.268-0.27 0.701-0.27 0.969 0l3.83 3.908c0.268 0.271 0.268 0.709 0 0.979l-3.83 3.908c-0.267 0.272-0.701 0.27-0.969 0s-0.268-0.707 0-0.978l3.141-3.419z"></path>
</symbol>
<symbol id="icon-chevron-small-up" viewBox="0 0 20 20">
<path d="M6.582 12.141c-0.271 0.268-0.709 0.268-0.978 0s-0.272-0.701 0-0.969l3.908-3.83c0.27-0.268 0.707-0.268 0.979 0l3.908 3.83c0.27 0.267 0.27 0.701 0 0.969s-0.709 0.268-0.979 0l-3.42-3.141-3.418 3.141z"></path>
</symbol>
</defs>
</svg>
